<?xml version="1.0" standalone="yes"?>
<svg xmlns="http://www.w3.org/2000/svg" width="438" height="242">
<path style="fill:#3bc5eb; stroke:none;" d="M0 0L0 242L438 242L438 0L0 0z"/>
<path style="fill:#27c3e7; stroke:none;" d="M272 144L267 57C258.842 58.5155 240.746 57.0315 234.51 62.6026C228.904 67.6106 226.899 82.0043 224.189 89C219.769 100.41 215.16 112.551 208.648 122.961C205.39 128.168 199.932 131.207 197.363 137C194.78 142.826 197.226 149.697 194.883 154.985C192.613 160.108 185.839 162.975 181 165L190.003 125L203 64L170 64L169 72L168 72C162.618 53.277 130.514 66.1495 121.001 73.669C100.367 89.979 89.2194 126.457 94.669 152C100.193 177.894 129.857 182.284 148 166C146.624 175.952 138.836 176.233 131 180.259C121.105 185.343 111.622 193.031 111.04 205C110.91 207.672 110.553 211.239 111.742 213.722C113.41 217.206 118.695 217.76 122 218.709C130.393 221.119 147.706 228.358 156 224.388C167.796 218.742 172.734 204.716 175.626 193C176.951 187.632 176.852 178.637 182.133 175.557C186.005 173.299 196.767 166.668 201 166.958C204.238 167.18 207.146 170.702 210 172.084C216.355 175.162 223.991 176.39 231 175.91C249.817 174.622 264.549 163.108 279 152C284.358 172.656 300.109 177.821 320 174.999C353.336 170.271 369.619 135.645 370.961 105C371.91 83.3223 365.286 62.0187 340 64.0934C335.687 64.4472 331.94 66.3839 328 68L335 29C326.86 27.1167 313.562 19.4156 305.433 25.027C299.745 28.9535 299.364 46.5492 297.881 53C293.071 73.9238 289.03 95.0306 284.424 116C282 127.039 281.923 137.199 272 144z"/>
<path style="fill:#2ec3e8; stroke:none;" d="M316 23L317 24L316 23z"/>
<path style="fill:#34c5e9; stroke:none;" d="M317 23L318 24L317 23z"/>
<path style="fill:#37c5e9; stroke:none;" d="M318 23L319 24L318 23z"/>
<path style="fill:#2ec3e8; stroke:none;" d="M320 24L321 25L320 24z"/>
<path style="fill:#34c5e9; stroke:none;" d="M321 24L322 25L321 24z"/>
<path style="fill:#2ec3e8; stroke:none;" d="M323 25L324 26L323 25z"/>
<path style="fill:#34c5e9; stroke:none;" d="M324 25L325 26L324 25z"/>
<path style="fill:#2ec3e8; stroke:none;" d="M326 26L327 27L326 26z"/>
<path style="fill:#34c5e9; stroke:none;" d="M327 26L328 27L327 26z"/>
<path style="fill:#2ec3e8; stroke:none;" d="M329 27L330 28L329 27z"/>
<path style="fill:#34c5e9; stroke:none;" d="M330 27L331 28L330 27z"/>
<path style="fill:#2ec3e8; stroke:none;" d="M332 28L333 29L332 28z"/>
<path style="fill:#34c5e9; stroke:none;" d="M333 28L334 29L333 28M335 29L336 30L335 29z"/>
<path style="fill:#3bc5eb; stroke:none;" d="M327 68L328 69L327 68M153 78.6528C134.78 84.3347 128.207 116.685 127.09 133C126.516 141.368 128.031 155.886 140 153.021C158.22 148.659 158.515 117.642 161.881 103C163.136 97.5415 165.885 90.6275 165.316 85.0039C164.687 78.7894 158.255 77.014 153 78.6528M332 80.4691C324.874 81.8158 323.376 86.5865 322 93C319.424 105.004 316.644 116.969 314.199 129C313.189 133.97 310.741 139.892 311.434 144.999C312.251 151.022 318.37 154.032 324 153.12C341.892 150.223 349.075 113.717 347.826 99C347.034 89.6679 343.595 78.2781 332 80.4691M234 91C231.299 102.671 223.388 112.583 220.499 124C219.248 128.946 224.202 132.723 222.646 137.999C221.073 143.332 209.087 147.562 212.133 153.772C216.802 163.291 234.075 154.316 237.08 147.999C242.633 136.33 238.2 117.331 236.576 105C235.959 100.32 236.914 94.8469 234 91M144 187C136.595 189.133 123.093 195.436 124.272 204.985C126.082 219.636 139.344 203.524 141.301 198C142.567 194.425 143.279 190.714 144 187z"/>
<path style="fill:#34c5e9; stroke:none;" d="M113 216L114 217L113 216z"/>
<path style="fill:#2ec3e8; stroke:none;" d="M114 216L115 217L114 216z"/>
<path style="fill:#34c5e9; stroke:none;" d="M116 217L117 218L116 217z"/>
<path style="fill:#2ec3e8; stroke:none;" d="M117 217L118 218L117 217z"/>
<path style="fill:#37c5e9; stroke:none;" d="M119 218L120 219L119 218z"/>
<path style="fill:#2ec3e8; stroke:none;" d="M120.667 218.333L121.333 218.667L120.667 218.333z"/>
<path style="fill:#34c5e9; stroke:none;" d="M123 219L124 220L123 219z"/>
<path style="fill:#2ec3e8; stroke:none;" d="M124 219L125 220L124 219z"/>
<path style="fill:#37c5e9; stroke:none;" d="M126 220L127 221L126 220z"/>
<path style="fill:#34c5e9; stroke:none;" d="M127 220L128 221L127 220z"/>
<path style="fill:#2ec3e8; stroke:none;" d="M128 220L129 221L128 220z"/>
<path style="fill:#37c5e9; stroke:none;" d="M130 221L131 222L130 221z"/>
<path style="fill:#34c5e9; stroke:none;" d="M131 221L132 222L131 221z"/>
<path style="fill:#2ec3e8; stroke:none;" d="M132 221L133 222L132 221z"/>
<path style="fill:#37c5e9; stroke:none;" d="M134 222L135 223L134 222z"/>
<path style="fill:#34c5e9; stroke:none;" d="M135 222L136 223L135 222z"/>
<path style="fill:#2ec3e8; stroke:none;" d="M136 222L137 223L136 222z"/>
<path style="fill:#37c5e9; stroke:none;" d="M138 223L139 224L138 223z"/>
<path style="fill:#34c5e9; stroke:none;" d="M139 223L140 224L139 223z"/>
<path style="fill:#2ec3e8; stroke:none;" d="M140.667 223.333L141.333 223.667L140.667 223.333z"/>
<path style="fill:#37c5e9; stroke:none;" d="M143 224L144 225L143 224z"/>
<path style="fill:#34c5e9; stroke:none;" d="M144 224L145 225L144 224z"/>
<path style="fill:#2ec3e8; stroke:none;" d="M145.667 224.333L146.333 224.667L145.667 224.333z"/>
<path style="fill:#37c5e9; stroke:none;" d="M148 225L149 226L148 225z"/>
<path style="fill:#34c5e9; stroke:none;" d="M149 225L150 226L149 225z"/>
<path style="fill:#2ec3e8; stroke:none;" d="M150.667 225.333L151.333 225.667L150.667 225.333z"/>
</svg>
